<svg id="evisaexpress_logo" xmlns="http://www.w3.org/2000/svg" width="244" height="58.019" viewBox="0 0 244 58.019">
  <path id="Fill_24" data-name="Fill 24" d="M15.141,0H9.075V.949h1.781L9.227,3.608a5.984,5.984,0,0,0-.734,1.546h-.07A6.158,6.158,0,0,0,7.691,3.6L5.513,0H0V.949H2.329L5.9,6.5,1.546,13.16H5.258L7.563,9.512a5.153,5.153,0,0,0,.791-1.675h.07a5.417,5.417,0,0,0,.8,1.665l2.3,3.66h3.783L10.961,6.5Z" transform="translate(92.872 18.402)" fill="#7c152a"/>
  <path id="Fill_25" data-name="Fill 25" d="M5.656,13.161H2.351V.95H0V0H8.333c3.389,0,5.413,1.58,5.413,4.227a4.02,4.02,0,0,1-1.763,3.43A7.288,7.288,0,0,1,7.845,8.784H5.656V13.16Zm0-10.739V6.4H7.693c1.712,0,2.654-.719,2.654-2.024,0-1.261-.839-1.955-2.362-1.955Z" transform="translate(111.97 18.402)" fill="#7c152a"/>
  <path id="Fill_26" data-name="Fill 26" d="M5.657,13.162H2.351V.95H0V0H9.172a6.065,6.065,0,0,1,3.661,1.013,3.61,3.61,0,0,1,1.426,3.054A4.018,4.018,0,0,1,11.22,7.946a8.189,8.189,0,0,1,1.025,1.377l2.536,3.836H11.15L8.1,8.4l-2.443.02v4.736Zm0-10.74v3.62H8.3c1.627,0,2.561-.661,2.561-1.814s-.81-1.8-2.281-1.8Z" transform="translate(128.678 18.402)" fill="#7c152a"/>
  <path id="Fill_27" data-name="Fill 27" d="M8.625,6.222,5.739,5.374C4.434,5,3.771,4.6,3.771,3.739c0-.788.606-1.426,2.189-1.426,1.478,0,2.328.569,2.328,1.725h3.468C11.756,1.326,9.545,0,6.065,0,2.455,0,.29,1.386.29,3.859.29,5.773,1.64,6.88,3.5,7.449l3.178.967c.908.279,1.711.6,1.711,1.515,0,.8-.71,1.416-2.351,1.416-1.607,0-2.549-.6-2.549-1.864H0c0,2.771,2.1,4.2,5.889,4.2,3.679,0,6.042-1.386,6.042-3.869C11.931,7.9,10.6,6.8,8.625,6.222" transform="translate(165.663 18.142)" fill="#7c152a"/>
  <path id="Fill_28" data-name="Fill 28" d="M8.626,6.222,5.739,5.374C4.434,5,3.771,4.6,3.771,3.739c0-.788.606-1.426,2.189-1.426,1.478,0,2.328.569,2.328,1.725h3.469C11.757,1.326,9.545,0,6.065,0,2.456,0,.29,1.386.29,3.859.29,5.773,1.64,6.88,3.5,7.449l3.178.967c.909.279,1.711.6,1.711,1.515,0,.8-.71,1.416-2.351,1.416-1.607,0-2.549-.6-2.549-1.864H0c0,2.771,2.1,4.2,5.89,4.2,3.678,0,6.041-1.386,6.041-3.869,0-1.914-1.331-3.014-3.3-3.592" transform="translate(183.486 18.142)" fill="#7c152a"/>
  <path id="Fill_29" data-name="Fill 29" d="M0,0V.949H2.351V13.161H12.524v-2.5H5.656V7.706h6.169V5.384H5.656V2.5h6.868V0Z" transform="translate(76.164 18.402)" fill="#7c152a"/>
  <path id="Fill_30" data-name="Fill 30" d="M0,0V.949H2.351V13.161H12.524v-2.5H5.656V7.706h6.169V5.384H5.656V2.5h6.868V0Z" transform="translate(147.874 18.402)" fill="#7c152a"/>
  <path id="Fill_31" data-name="Fill 31" d="M2.351,13.168H12.523v-2.5H5.656V7.711h6.169V5.387H5.656V2.5h6.867V0H0V.949H2.351Z" transform="translate(76.164 0.259)" fill="#7c152a"/>
  <path id="Fill_32" data-name="Fill 32" d="M2.351,13.168H5.656V0H0V.949H2.351Z" transform="translate(111.818 0.259)" fill="#7c152a"/>
  <path id="Fill_33" data-name="Fill 33" d="M6.041,11.352c-1.606,0-2.549-.6-2.549-1.866H0c0,2.773,2.1,4.2,5.889,4.2,3.678,0,6.041-1.387,6.041-3.87C11.93,7.9,10.6,6.8,8.625,6.225L5.738,5.376C4.434,5,3.771,4.6,3.771,3.741c0-.788.606-1.427,2.189-1.427,1.478,0,2.328.568,2.328,1.725h3.468C11.756,1.327,9.544,0,6.065,0,2.456,0,.291,1.386.291,3.861c0,1.915,1.351,3.022,3.213,3.591l3.178.967c.908.28,1.711.6,1.711,1.516,0,.8-.71,1.417-2.352,1.417" transform="translate(124.083)" fill="#7c152a"/>
  <path id="Fill_34" data-name="Fill 34" d="M3.549,13.169H0L4.5.949h-2V0H9.254l4.841,13.167H10.463l-.721-2.156H4.284L3.55,13.168ZM6.995,2.254A14.481,14.481,0,0,1,6.24,5.2L5.109,8.549H8.927L7.833,5.216a16.474,16.474,0,0,1-.756-2.962Z" transform="translate(141.334 0.259)" fill="#7c152a"/>
  <path id="Fill_35" data-name="Fill 35" d="M2.351.953l4.3,12.225H11L15.625.01,9.754,0V.949H11.8L9.572,8.01a16.889,16.889,0,0,0-.7,2.923H8.8A16.116,16.116,0,0,0,8.129,8.01l-2.49-8H0V.959H2.351Z" transform="translate(92.399 0.249)" fill="#7c152a"/>
  <path id="Fill_36" data-name="Fill 36" d="M0,.861.338,0" transform="translate(15.206 30.869)" fill="#b08f6f"/>
  <g id="sign" transform="translate(0 0.26)">
    <path id="Fill_37" data-name="Fill 37" d="M19.807,0H.6L0,1.548H19.211Z" transform="translate(2.99)" fill="#b08f6f"/>
    <path id="Fill_38" data-name="Fill 38" d="M19.215,1.549,19.811,0H.6L0,1.549Z" transform="translate(1.491 3.891)" fill="#b08f6f"/>
    <path id="Fill_39" data-name="Fill 39" d="M26.849,23.708H25.187L33.721,1.549H30.389L21.853,23.707H20.189L28.724,1.549H25.4L16.87,23.707H15L.006,1.549H0V1.542L.6,0H19.811l-.594,1.544H13.145L19.9,11.527,24.338,0H43.552l-.6,1.544H35.385L26.85,23.707ZM1.881,1.549,15.81,22.133l1.366-3.542L5.644,1.549Zm5.638,0L17.855,16.824l1.362-3.531L11.27,1.549Z" transform="translate(0 7.762)" fill="#b08f6f"/>
    <path id="Fill_40" data-name="Fill 40" d="M.6,0,0,1.548H19.211L19.808,0Z" transform="translate(26.731)" fill="#b08f6f"/>
    <path id="Fill_41" data-name="Fill 41" d="M.6,0,0,1.549H19.215L19.811,0Z" transform="translate(25.232 3.891)" fill="#b08f6f"/>
  </g>
  <path id="Fill_42" data-name="Fill 42" d="M0,58H1.913V0H0Z" transform="translate(59.772 0.019)" fill="#7c152a"/>
  <g id="Group_210" data-name="Group 210" transform="translate(75.462 42.957)">
    <path id="Fill_1" data-name="Fill 1" d="M8,.985H4.614V10H3.386V.985H0V0H8Z" transform="translate(0 1.566)" fill="#7c152a"/>
    <path id="Fill_2" data-name="Fill 2" d="M2.9,8.116C1.059,8.116,0,7.291,0,5.851c0-1.519,1.287-2.39,3.531-2.39H5.94V2.674c0-.8-.376-1.746-2.17-1.746-1.344,0-2.115.453-2.115,1.243H.367A1.828,1.828,0,0,1,1.328.555,4.868,4.868,0,0,1,3.806,0C6.044,0,7.227.93,7.227,2.69V7.96h-1.1l-.1-1.11A4.582,4.582,0,0,1,2.9,8.116Zm.754-3.681c-1.074,0-2.354.246-2.354,1.416,0,.876.617,1.338,1.785,1.338a3.841,3.841,0,0,0,2.85-1.5V4.435Z" transform="translate(8.561 3.366)" fill="#7c152a"/>
    <path id="Fill_4" data-name="Fill 4" d="M3.393,7.6,1.287,9.879v1.29H0V0H1.287V8.416l4.487-5.05h1.4l-3,3.382,3.273,4.42H6Z" transform="translate(18.175 0.157)" fill="#7c152a"/>
    <path id="Fill_6" data-name="Fill 6" d="M1.637,10.839H.349v-7.8H1.637ZM.993,1.668A.893.893,0,0,1,0,.833.893.893,0,0,1,.993,0a.893.893,0,0,1,.994.833.894.894,0,0,1-.994.835Z" transform="translate(26.648 0.487)" fill="#7c152a"/>
    <path id="Fill_8" data-name="Fill 8" d="M6.933,2.6V7.96H5.645V2.86c0-1.243-.386-1.919-1.6-1.919A4.342,4.342,0,0,0,1.287,2.194V7.96H0V.157H1.14l.083.952A4.826,4.826,0,0,1,4.193,0a2.4,2.4,0,0,1,2.74,2.6" transform="translate(30.766 3.366)" fill="#7c152a"/>
    <path id="Fill_9" data-name="Fill 9" d="M3.917,12.3h-.11a6.39,6.39,0,0,1-2.766-.489A1.621,1.621,0,0,1,0,10.319a1.77,1.77,0,0,1,1.149-1.6A.869.869,0,0,1,.386,7.85,1.623,1.623,0,0,1,1.03,6.78l.717-.621A2.541,2.541,0,0,1,.46,3.9c0-1.3.91-2.815,3.475-2.815a4.441,4.441,0,0,1,1.885.377A1.608,1.608,0,0,0,6.326.094V0H7.613V.095A1.866,1.866,0,0,1,6.565,1.958a2.594,2.594,0,0,1,.828,1.927c0,1.394-1.069,2.8-3.458,2.8A5.449,5.449,0,0,1,2.749,6.56l-.836.786c-.148.142-.2.236-.2.346,0,.188.155.283.46.283H4.8c2,0,3.145.774,3.145,2.124a1.8,1.8,0,0,1-1.11,1.661A6.581,6.581,0,0,1,3.917,12.3ZM2.234,8.95a1.378,1.378,0,0,0-.946,1.211c0,.848.841,1.243,2.647,1.243s2.722-.418,2.722-1.243S5.971,8.95,4.432,8.95ZM3.935,2c-1.35,0-2.188.723-2.188,1.887,0,1.182.818,1.887,2.188,1.887,1.319,0,2.171-.735,2.171-1.872C6.106,2.709,5.294,2,3.935,2Z" transform="translate(39.258 2.265)" fill="#7c152a"/>
    <path id="Fill_10" data-name="Fill 10" d="M0,4.059C0,1.447,1.232,0,3.88,0c2.207,0,3.4,1.007,3.4,2.533H6C6,1.415,5.076.928,3.825.928,2.04.928,1.287,2.014,1.287,4.043c0,2.092.791,3.146,2.556,3.146C5.094,7.189,6,6.717,6,5.584H7.282c0,1.51-1.2,2.532-3.476,2.532C1.122,8.116,0,6.654,0,4.059" transform="translate(51.518 3.366)" fill="#7c152a"/>
    <path id="Fill_11" data-name="Fill 11" d="M2.906,8.116C1.059,8.116,0,7.291,0,5.851c0-1.519,1.287-2.39,3.531-2.39H5.94V2.674c0-.8-.376-1.746-2.17-1.746-1.344,0-2.115.453-2.115,1.243H.368A1.828,1.828,0,0,1,1.329.555,4.868,4.868,0,0,1,3.807,0c2.237,0,3.42.93,3.42,2.69V7.96h-1.1l-.1-1.11A4.581,4.581,0,0,1,2.906,8.116Zm.753-3.681c-1.074,0-2.354.246-2.354,1.416,0,.876.617,1.338,1.784,1.338a3.838,3.838,0,0,0,2.851-1.5V4.435Z" transform="translate(60.268 3.366)" fill="#7c152a"/>
    <path id="Fill_12" data-name="Fill 12" d="M3.954.032,3.807,1.18H3.439A2.029,2.029,0,0,0,1.287,3.492V7.96H0V.157H1.159l.055,1.219A2.52,2.52,0,0,1,3.457,0a4.317,4.317,0,0,1,.5.032" transform="translate(69.882 3.366)" fill="#7c152a"/>
    <path id="Fill_13" data-name="Fill 13" d="M3.862,8.116C1.263,8.116,0,6.778,0,4.027,0,1.468,1.428,0,3.917,0,6.3,0,7.558,1.284,7.558,3.713v.628H1.3c.075,1.943.9,2.849,2.585,2.849,1.5,0,2.3-.555,2.3-1.6H7.466C7.466,7.194,6.152,8.116,3.862,8.116ZM3.881.928A2.35,2.35,0,0,0,1.306,3.366H6.27C6.2,1.726,5.42.928,3.881.928Z" transform="translate(74.661 3.366)" fill="#7c152a"/>
    <path id="Fill_14" data-name="Fill 14" d="M3.881,8.116a3.792,3.792,0,0,1-3-1.07A4.293,4.293,0,0,1,0,4.089C0,1.376,1.318,0,3.918,0a3.791,3.791,0,0,1,3,1.07A4.292,4.292,0,0,1,7.8,4.027,4.363,4.363,0,0,1,6.88,7a3.823,3.823,0,0,1-3,1.116ZM3.918.928c-1.819,0-2.63.97-2.63,3.145s.786,3.115,2.63,3.115A2.365,2.365,0,0,0,5.91,6.394a3.739,3.739,0,0,0,.6-2.351C6.511,1.859,5.735.928,3.918.928Z" transform="translate(87.27 3.366)" fill="#7c152a"/>
    <path id="Fill_15" data-name="Fill 15" d="M3.034,2.186V3.523H5.149V4.5H3.034v6.827H1.747V4.5H0V3.523H1.747V2.092C1.747.708,2.372,0,3.9,0A7.839,7.839,0,0,1,5.15.1v.944A6.44,6.44,0,0,0,4.1.944c-.938,0-1.067.393-1.067,1.243" transform="translate(95.983 0)" fill="#7c152a"/>
    <path id="Fill_16" data-name="Fill 16" d="M7.853,0,4.239,9.014a2.8,2.8,0,0,1-2.823,2.029,9.229,9.229,0,0,1-1.325-.078V10.02a5.543,5.543,0,0,0,1.067.1A1.712,1.712,0,0,0,2.915,9l.377-.849L0,0H1.38L3.255,4.986A14.679,14.679,0,0,1,3.9,7.079h.037a12.8,12.8,0,0,1,.681-2.092L6.491,0Z" transform="translate(104.898 3.523)" fill="#7c152a"/>
    <path id="Fill_17" data-name="Fill 17" d="M3.881,8.116a3.792,3.792,0,0,1-3-1.07A4.293,4.293,0,0,1,0,4.089C0,1.376,1.318,0,3.917,0a3.793,3.793,0,0,1,3,1.07A4.292,4.292,0,0,1,7.8,4.027,4.363,4.363,0,0,1,6.88,7a3.823,3.823,0,0,1-3,1.116ZM3.917.928C2.1.928,1.288,1.9,1.288,4.073s.786,3.115,2.629,3.115c1.794,0,2.594-.97,2.594-3.145S5.735.928,3.917.928Z" transform="translate(113.574 3.366)" fill="#7c152a"/>
    <path id="Fill_18" data-name="Fill 18" d="M6.878,0V7.8H5.737l-.1-.9A4.894,4.894,0,0,1,2.722,7.96,2.384,2.384,0,0,1,0,5.364V0H1.288V5.1c0,1.243.4,1.919,1.673,1.919a4.215,4.215,0,0,0,2.629-1.2V0Z" transform="translate(123.298 3.523)" fill="#7c152a"/>
    <path id="Fill_19" data-name="Fill 19" d="M3.954.032,3.807,1.18H3.439A2.029,2.029,0,0,0,1.287,3.492V7.96H0V.157H1.159l.055,1.219A2.52,2.52,0,0,1,3.457,0a4.317,4.317,0,0,1,.5.032" transform="translate(132.746 3.366)" fill="#7c152a"/>
    <path id="Fill_20" data-name="Fill 20" d="M4.708,7.8H3.145L0,0H1.38L3.273,5a15.079,15.079,0,0,1,.644,2.061h.037A15.493,15.493,0,0,1,4.6,5L6.491,0H7.853Z" transform="translate(140.65 3.523)" fill="#7c152a"/>
    <path id="Fill_21" data-name="Fill 21" d="M1.637,10.839H.349v-7.8H1.637ZM.994,1.668A.894.894,0,0,1,0,.833.893.893,0,0,1,.994,0a.893.893,0,0,1,.993.833.893.893,0,0,1-.993.835Z" transform="translate(149.62 0.487)" fill="#7c152a"/>
    <path id="Fill_22" data-name="Fill 22" d="M5.462,2.171C5.444,1.211,4.506.912,3.476.912c-1.563,0-2.023.63-2.023,1.227,0,.724.589.983,1.453,1.211l1.857.488c1.2.315,2.078.873,2.078,2.108,0,1.1-.937,2.171-3.42,2.171C1.27,8.117,0,7.377,0,5.836H1.288c0,.96.882,1.369,2.188,1.369,1.471,0,2.1-.551,2.1-1.2,0-.677-.515-.991-1.36-1.211l-1.99-.515C1.03,3.964.185,3.335.185,2.155S1.2,0,3.494,0C5.241,0,6.75.55,6.75,2.171Z" transform="translate(153.094 3.366)" fill="#7c152a"/>
    <path id="Fill_23" data-name="Fill 23" d="M2.906,8.116C1.059,8.116,0,7.291,0,5.851c0-1.519,1.287-2.39,3.531-2.39H5.94V2.674c0-.8-.376-1.746-2.17-1.746-1.344,0-2.115.453-2.115,1.243H.368A1.828,1.828,0,0,1,1.329.555,4.866,4.866,0,0,1,3.806,0C6.045,0,7.228.93,7.228,2.69V7.96h-1.1l-.1-1.11A4.577,4.577,0,0,1,2.906,8.116Zm.753-3.681c-1.074,0-2.354.246-2.354,1.416,0,.876.617,1.338,1.785,1.338a3.841,3.841,0,0,0,2.85-1.5V4.435Z" transform="translate(161.31 3.366)" fill="#7c152a"/>
  </g>
</svg>
