<svg id="evisaexpress_logo_small" xmlns="http://www.w3.org/2000/svg" width="244" height="32" viewBox="0 0 244 32">
  <path id="Fill_24" data-name="Fill 24" d="M15.141,0H9.075V.949h1.781L9.227,3.608a5.984,5.984,0,0,0-.734,1.546h-.07A6.158,6.158,0,0,0,7.691,3.6L5.513,0H0V.949H2.329L5.9,6.5,1.546,13.16H5.258L7.563,9.512a5.153,5.153,0,0,0,.791-1.675h.07a5.417,5.417,0,0,0,.8,1.665l2.3,3.66h3.783L10.961,6.5Z" transform="translate(93.091 18.402)" fill="#7c152a"/>
  <path id="Fill_25" data-name="Fill 25" d="M5.656,13.161H2.351V.95H0V0H8.333c3.389,0,5.413,1.58,5.413,4.227a4.02,4.02,0,0,1-1.763,3.43A7.288,7.288,0,0,1,7.845,8.784H5.656V13.16Zm0-10.739V6.4H7.693c1.712,0,2.654-.719,2.654-2.024,0-1.261-.839-1.955-2.362-1.955Z" transform="translate(112.232 18.402)" fill="#7c152a"/>
  <path id="Fill_26" data-name="Fill 26" d="M5.657,13.162H2.351V.95H0V0H9.172a6.065,6.065,0,0,1,3.661,1.013,3.61,3.61,0,0,1,1.426,3.054A4.018,4.018,0,0,1,11.22,7.946a8.189,8.189,0,0,1,1.025,1.377l2.536,3.836H11.15L8.1,8.4l-2.443.02v4.736Zm0-10.74v3.62H8.3c1.627,0,2.561-.661,2.561-1.814s-.81-1.8-2.281-1.8Z" transform="translate(128.98 18.402)" fill="#7c152a"/>
  <path id="Fill_27" data-name="Fill 27" d="M8.625,6.222,5.739,5.374C4.434,5,3.771,4.6,3.771,3.739c0-.788.606-1.426,2.189-1.426,1.478,0,2.328.569,2.328,1.725h3.468C11.756,1.326,9.545,0,6.065,0,2.455,0,.29,1.386.29,3.859.29,5.773,1.64,6.88,3.5,7.449l3.178.967c.908.279,1.711.6,1.711,1.515,0,.8-.71,1.416-2.351,1.416-1.607,0-2.549-.6-2.549-1.864H0c0,2.771,2.1,4.2,5.889,4.2,3.679,0,6.042-1.386,6.042-3.869C11.931,7.9,10.6,6.8,8.625,6.222" transform="translate(166.047 18.142)" fill="#7c152a"/>
  <path id="Fill_28" data-name="Fill 28" d="M8.626,6.222,5.739,5.374C4.434,5,3.771,4.6,3.771,3.739c0-.788.606-1.426,2.189-1.426,1.478,0,2.328.569,2.328,1.725h3.469C11.757,1.326,9.545,0,6.065,0,2.456,0,.29,1.386.29,3.859.29,5.773,1.64,6.88,3.5,7.449l3.178.967c.909.279,1.711.6,1.711,1.515,0,.8-.71,1.416-2.351,1.416-1.607,0-2.549-.6-2.549-1.864H0c0,2.771,2.1,4.2,5.89,4.2,3.678,0,6.041-1.386,6.041-3.869,0-1.914-1.331-3.014-3.3-3.592" transform="translate(183.911 18.142)" fill="#7c152a"/>
  <path id="Fill_29" data-name="Fill 29" d="M0,0V.949H2.351V13.161H12.524v-2.5H5.656V7.706h6.169V5.384H5.656V2.5h6.868V0Z" transform="translate(76.341 18.402)" fill="#7c152a"/>
  <path id="Fill_30" data-name="Fill 30" d="M0,0V.949H2.351V13.161H12.524v-2.5H5.656V7.706h6.169V5.384H5.656V2.5h6.868V0Z" transform="translate(148.218 18.402)" fill="#7c152a"/>
  <path id="Fill_31" data-name="Fill 31" d="M2.351,13.168H12.523v-2.5H5.656V7.711h6.169V5.387H5.656V2.5h6.867V0H0V.949H2.351Z" transform="translate(76.341 0.259)" fill="#7c152a"/>
  <path id="Fill_32" data-name="Fill 32" d="M2.351,13.168H5.656V0H0V.949H2.351Z" transform="translate(112.07 0.259)" fill="#7c152a"/>
  <path id="Fill_33" data-name="Fill 33" d="M6.041,11.352c-1.606,0-2.549-.6-2.549-1.866H0c0,2.773,2.1,4.2,5.889,4.2,3.678,0,6.041-1.387,6.041-3.87C11.93,7.9,10.6,6.8,8.625,6.225L5.738,5.376C4.434,5,3.771,4.6,3.771,3.741c0-.788.606-1.427,2.189-1.427,1.478,0,2.328.568,2.328,1.725h3.468C11.756,1.327,9.544,0,6.065,0,2.456,0,.291,1.386.291,3.861c0,1.915,1.351,3.022,3.213,3.591l3.178.967c.908.28,1.711.6,1.711,1.516,0,.8-.71,1.417-2.352,1.417" transform="translate(124.371)" fill="#7c152a"/>
  <path id="Fill_34" data-name="Fill 34" d="M3.549,13.169H0L4.5.949h-2V0H9.254l4.841,13.167H10.463l-.721-2.156H4.284L3.55,13.168ZM6.995,2.254A14.481,14.481,0,0,1,6.24,5.2L5.109,8.549H8.927L7.833,5.216a16.474,16.474,0,0,1-.756-2.962Z" transform="translate(141.665 0.259)" fill="#7c152a"/>
  <path id="Fill_35" data-name="Fill 35" d="M2.351.953l4.3,12.225H11L15.625.01,9.754,0V.949H11.8L9.572,8.01a16.889,16.889,0,0,0-.7,2.923H8.8A16.116,16.116,0,0,0,8.129,8.01l-2.49-8H0V.959H2.351Z" transform="translate(92.617 0.249)" fill="#7c152a"/>
  <path id="Fill_36" data-name="Fill 36" d="M0,.861.338,0" transform="translate(15.206 30.869)" fill="#b08f6f"/>
  <g id="sign" transform="translate(0 -0.403)">
    <path id="Fill_37" data-name="Fill 37" d="M19.807,0H.6L0,1.548H19.211Z" transform="translate(2.99 0.663)" fill="#b08f6f"/>
    <path id="Fill_38" data-name="Fill 38" d="M19.215,1.549,19.811,0H.6L0,1.549Z" transform="translate(1.491 4.554)" fill="#b08f6f"/>
    <path id="Fill_39" data-name="Fill 39" d="M26.849,23.708H25.187L33.721,1.549H30.389L21.853,23.707H20.189L28.724,1.549H25.4L16.87,23.707H15L.006,1.549H0V1.542L.6,0H19.811l-.594,1.544H13.145L19.9,11.527,24.338,0H43.552l-.6,1.544H35.385L26.85,23.707ZM1.881,1.549,15.81,22.133l1.366-3.542L5.644,1.549Zm5.638,0L17.855,16.824l1.362-3.531L11.27,1.549Z" transform="translate(0 8.425)" fill="#b08f6f"/>
    <path id="Fill_40" data-name="Fill 40" d="M.6,0,0,1.548H19.211L19.808,0Z" transform="translate(26.731 0.663)" fill="#b08f6f"/>
    <path id="Fill_41" data-name="Fill 41" d="M.6,0,0,1.549H19.215L19.811,0Z" transform="translate(25.232 4.554)" fill="#b08f6f"/>
  </g>
  <path id="Fill_42" data-name="Fill 42" d="M0,31.711H1.927V0H0Z" transform="translate(59.905 0.019)" fill="#7c152a"/>
  <g id="Rectangle_51" data-name="Rectangle 51" fill="none" stroke="rgba(112,112,112,0)" stroke-width="1">
    <rect width="244" height="32" stroke="none"/>
    <rect x="0.5" y="0.5" width="243" height="31" fill="none"/>
  </g>
</svg>
