<svg xmlns="http://www.w3.org/2000/svg" xmlns:xlink="http://www.w3.org/1999/xlink" width="76.661" height="88.166" viewBox="0 0 76.661 88.166"><defs><style>.a{clip-path:url(#a);}.b,.c,.d,.e,.f{fill:none;stroke:#b08f6f;stroke-miterlimit:10;}.c{opacity:0.8;}.d{opacity:0.6;}.e{opacity:0.4;}.f{opacity:0.2;}.g{fill:#b08f6f;}</style><clipPath id="a"><rect width="76.661" height="88.166"/></clipPath></defs><g class="a"><path class="b" d="M38.634.577.8,22.066l-.3,43.5L38.027,87.588,75.856,66.1l.3-43.507Z"/><path class="c" d="M43.686,4.986,7.15,19.9,1.794,59,32.975,83.179l36.536-14.91,5.354-39.1Z"/><path class="d" d="M47.715,9.542,13.109,18.685,3.725,53.228l25.221,25.4,34.605-9.144,9.386-34.542Z"/><path class="e" d="M50.807,14.11l-32.2,4.181L6.135,48.265l19.72,25.791,32.194-4.182L70.525,39.9Z"/><path class="f" d="M53.075,18.793H23.629L8.9,44.293l14.725,25.5h29.45L67.8,44.293Z"/><g transform="translate(0 -1)"><path class="g" d="M40.159,53.006h-2V39.761l-4.007,1.472V39.428l5.694-2.138h.311Z"/></g></g></svg>