<svg xmlns="http://www.w3.org/2000/svg" xmlns:xlink="http://www.w3.org/1999/xlink" width="76.661" height="88.166" viewBox="0 0 76.661 88.166"><defs><style>.a{clip-path:url(#a);}.b,.c,.d,.e,.f{fill:none;stroke:#b08f6f;stroke-miterlimit:10;}.c{opacity:0.8;}.d{opacity:0.6;}.e{opacity:0.4;}.f{opacity:0.2;}.g{fill:#b08f6f;}</style><clipPath id="a"><rect width="76.661" height="88.166"/></clipPath></defs><g class="a"><path class="b" d="M38.634.577.8,22.066l-.3,43.5L38.027,87.588,75.856,66.1l.3-43.507Z"/><path class="c" d="M43.686,4.986,7.15,19.9,1.794,59,32.975,83.179l36.536-14.91,5.354-39.1Z"/><path class="d" d="M47.715,9.542,13.109,18.685,3.725,53.228l25.221,25.4,34.605-9.144,9.386-34.542Z"/><path class="e" d="M50.807,14.11l-32.2,4.181L6.135,48.265l19.72,25.791,32.194-4.182L70.525,39.9Z"/><path class="f" d="M53.075,18.793H23.629L8.9,44.293l14.725,25.5h29.45L67.8,44.293Z"/><path class="g" d="M43.875,53.006H33.628V51.577l5.414-6.016a12.847,12.847,0,0,0,1.66-2.218,3.7,3.7,0,0,0,.457-1.768,2.809,2.809,0,0,0-.742-2.009,2.589,2.589,0,0,0-1.976-.784,3.067,3.067,0,0,0-2.3.844,3.219,3.219,0,0,0-.822,2.347H33.328a4.61,4.61,0,0,1,1.391-3.491,5.156,5.156,0,0,1,3.722-1.332A4.953,4.953,0,0,1,41.89,38.3a3.9,3.9,0,0,1,1.268,3.045q0,2.31-2.943,5.5l-4.19,4.544h7.852v1.622Z" transform="translate(0 -1)"/></g></svg>