<svg xmlns="http://www.w3.org/2000/svg" width="22" height="22" viewBox="0 0 22 22"><defs><style>.a{fill:#fdf3f5;}.b,.c{fill:#bf2d4b;}.c{stroke:rgba(0,0,0,0);stroke-miterlimit:10;}</style></defs><path class="a" d="M11,21A10,10,0,1,1,21,11,10.011,10.011,0,0,1,11,21Z"/><path class="b" d="M11,2a9,9,0,1,0,9,9,9.01,9.01,0,0,0-9-9m0-2A11,11,0,1,1,0,11,11,11,0,0,1,11,0Z"/><path class="c" d="M3.724-11.88H1.618l.206,8.4H3.518ZM2.656.12a1.154,1.154,0,0,0,.853-.292,1.154,1.154,0,0,0,.382-.817,1.154,1.154,0,0,0-.382-.818A1.154,1.154,0,0,0,2.656-2.1a1.159,1.159,0,0,0-.851.3,1.159,1.159,0,0,0-.383.816,1.159,1.159,0,0,0,.383.815A1.159,1.159,0,0,0,2.656.12Z" transform="translate(8.578 16.88)"/></svg>